<?xml version="1.0" encoding="UTF-8" standalone="no"?>
<!-- Uploaded to: SVG Repo, www.svgrepo.com, Generator: SVG Repo Mixer Tools -->

<svg
   fill="#000000"
   width="800px"
   height="800px"
   viewBox="0 0 32 32"
   version="1.1"
   id="svg1"
   sodipodi:docname="dj.svg"
   inkscape:version="1.4.1 (93de688d07, 2025-03-30)"
   xmlns:inkscape="http://www.inkscape.org/namespaces/inkscape"
   xmlns:sodipodi="http://sodipodi.sourceforge.net/DTD/sodipodi-0.dtd"
   xmlns="http://www.w3.org/2000/svg"
   xmlns:svg="http://www.w3.org/2000/svg">
  <defs
     id="defs1" />
  <sodipodi:namedview
     id="namedview1"
     pagecolor="#ffffff"
     bordercolor="#000000"
     borderopacity="0.25"
     inkscape:showpageshadow="2"
     inkscape:pageopacity="0.0"
     inkscape:pagecheckerboard="0"
     inkscape:deskcolor="#d1d1d1"
     inkscape:zoom="1.06"
     inkscape:cx="399.5283"
     inkscape:cy="400"
     inkscape:window-width="1896"
     inkscape:window-height="1027"
     inkscape:window-x="0"
     inkscape:window-y="0"
     inkscape:window-maximized="1"
     inkscape:current-layer="svg1" />
  <path
     d="M14.859 0h5.234v24.219c-2.682 0.51-4.656 0.714-6.797 0.714-6.385 0-9.714-2.885-9.714-8.427 0-5.333 3.531-8.797 9-8.797 0.849 0 1.495 0.068 2.276 0.271zM14.859 12.193c-0.568-0.193-1.167-0.286-1.766-0.276-2.651 0-4.177 1.63-4.177 4.49 0 2.786 1.458 4.313 4.146 4.313 0.578 0 1.052-0.031 1.797-0.135v-8.396zM28.417 8.078v12.13c0 4.177-0.302 6.188-1.219 7.917-0.849 1.667-1.974 2.719-4.281 3.875l-4.859-2.313c2.307-1.089 3.432-2.036 4.146-3.5 0.745-1.495 0.984-3.229 0.984-7.781v-10.328zM23.188 0.026h5.229v5.37h-5.229z"
     id="path1"
     style="fill:#5c0d9f;fill-opacity:1" />
</svg>
