<?xml version="1.0" encoding="UTF-8" standalone="no"?>
<!-- Uploaded to: SVG Repo, www.svgrepo.com, Generator: SVG Repo Mixer Tools -->

<svg
   fill="#000000"
   height="800px"
   width="800px"
   version="1.1"
   id="Layer_1"
   viewBox="0 0 512 512"
   xml:space="preserve"
   sodipodi:docname="cpp.svg"
   inkscape:version="1.4.1 (93de688d07, 2025-03-30)"
   xmlns:inkscape="http://www.inkscape.org/namespaces/inkscape"
   xmlns:sodipodi="http://sodipodi.sourceforge.net/DTD/sodipodi-0.dtd"
   xmlns="http://www.w3.org/2000/svg"
   xmlns:svg="http://www.w3.org/2000/svg"><defs
   id="defs8" /><sodipodi:namedview
   id="namedview8"
   pagecolor="#ffffff"
   bordercolor="#000000"
   borderopacity="0.25"
   inkscape:showpageshadow="2"
   inkscape:pageopacity="0.0"
   inkscape:pagecheckerboard="0"
   inkscape:deskcolor="#d1d1d1"
   inkscape:zoom="0.8115625"
   inkscape:cx="348.71005"
   inkscape:cy="332.69157"
   inkscape:window-width="1896"
   inkscape:window-height="1027"
   inkscape:window-x="0"
   inkscape:window-y="0"
   inkscape:window-maximized="1"
   inkscape:current-layer="Layer_1" />


<path
   sodipodi:type="star"
   style="display:inline;opacity:1;fill:#67e8f9;stroke:#67e8f9;stroke-width:0.64"
   id="path2"
   inkscape:flatsided="true"
   sodipodi:sides="6"
   sodipodi:cx="85.132072"
   sodipodi:cy="134.03773"
   sodipodi:r1="108.43915"
   sodipodi:r2="93.911057"
   sodipodi:arg1="0.51845551"
   sodipodi:arg2="1.0420543"
   inkscape:rounded="0"
   inkscape:randomized="0"
   d="M 179.32075,187.77358 85.689801,242.47545 -8.4988779,188.7396 -9.0566068,80.301886 84.574344,25.600021 178.76302,79.335871 Z"
   transform="matrix(-1.9653721,0,0,1.7827721,428.74398,10.214927)" /><g
   id="g7"
   transform="translate(40.268001,-68.571429)"
   style="display:inline;fill:#ffffff;fill-opacity:1"><g
     id="g2"
     style="fill:#ffffff;fill-opacity:1"
     transform="matrix(1.729215,0,0,1.6625315,-139.13954,-112.60298)">
	<g
   id="g1"
   style="fill:#ffffff;fill-opacity:1">
		<path
   d="m 209.981,274.116 -0.524,1.4 c -0.91,2.428 -2.162,4.501 -3.719,6.158 -1.583,1.683 -3.387,3.074 -5.364,4.138 -1.996,1.075 -4.096,1.853 -6.244,2.314 -6.28,1.346 -12.198,0.739 -16.95,-1.678 -3.128,-1.588 -5.804,-3.745 -7.953,-6.409 -2.168,-2.682 -3.842,-5.824 -4.979,-9.341 -1.145,-3.532 -1.726,-7.279 -1.726,-11.14 0,-3.44 0.503,-6.958 1.495,-10.456 0.98,-3.46 2.499,-6.604 4.513,-9.341 1.994,-2.707 4.586,-4.936 7.706,-6.622 4.583,-2.481 10.732,-3.187 17.683,-1.899 2.195,0.41 4.352,1.136 6.408,2.162 2.029,1.017 3.909,2.409 5.588,4.137 1.658,1.711 3.015,3.917 4.032,6.56 l 0.578,1.502 26.392,-18.775 -0.512,-0.967 c -4.1,-7.754 -10.41,-14.069 -18.755,-18.768 -8.326,-4.684 -18.281,-7.059 -29.59,-7.059 -9.445,0 -17.977,1.732 -25.363,5.147 -7.363,3.408 -13.72,7.926 -18.893,13.428 -5.174,5.505 -9.165,11.812 -11.862,18.747 -2.695,6.924 -4.061,14.069 -4.061,21.232 0,7.488 1.45,14.96 4.307,22.212 2.856,7.254 6.951,13.828 12.172,19.541 5.221,5.719 11.521,10.375 18.726,13.839 7.223,3.474 15.298,5.236 23.999,5.236 4.939,0 10.086,-0.612 15.299,-1.818 5.21,-1.206 10.166,-2.988 14.731,-5.297 4.582,-2.319 8.724,-5.23 12.312,-8.652 3.625,-3.459 6.374,-7.427 8.167,-11.794 l 0.408,-0.995 z"
   id="path1"
   style="fill:#ffffff;fill-opacity:1" />
	</g>
</g><g
     id="g4"
     style="fill:#ffffff;fill-opacity:1"
     transform="translate(-21.132075,59.773585)">
	<g
   id="g3"
   style="fill:#ffffff;fill-opacity:1">
		<polygon
   points="262.3,288.406 292.397,288.406 292.397,272.983 306.195,272.983 306.195,246.135 292.397,246.135 292.397,230.712 262.3,230.712 262.3,246.135 248.501,246.135 248.501,272.983 262.3,272.983 "
   id="polygon2"
   style="fill:#ffffff;fill-opacity:1" />
	</g>
</g><g
     id="g6"
     style="fill:#ffffff;fill-opacity:1"
     transform="translate(-31.396226,59.169811)">
	<g
   id="g5"
   style="fill:#ffffff;fill-opacity:1">
		<polygon
   points="336.651,288.406 366.748,288.406 366.748,272.983 380.546,272.983 380.546,246.135 366.748,246.135 366.748,230.712 336.651,230.712 336.651,246.135 322.852,246.135 322.852,272.983 336.651,272.983 "
   id="polygon4"
   style="fill:#ffffff;fill-opacity:1" />
	</g>
</g></g>

</svg>
